<svg xmlns="http://www.w3.org/2000/svg" xmlns:xlink="http://www.w3.org/1999/xlink" id="Capa_1" width="512" height="512" x="0" y="0" enable-background="new 0 0 512 512" version="1.1" viewBox="0 0 512 512" xml:space="preserve"><g><path fill="#E1EFFB" d="M478.232,504.519H33.768c-13.875,0-25.123-11.248-25.123-25.123V81.462 c0-13.875,11.248-25.123,25.123-25.123h444.464c13.875,0,25.123,11.248,25.123,25.123v397.935 C503.355,493.271,492.107,504.519,478.232,504.519z" data-original="#E1EFFB"/><path fill="#CCDFED" d="M478.232,56.339h-52.351c13.875,0,25.123,11.248,25.123,25.123v351.429 c0,20.555-16.663,37.218-37.218,37.218H33.768c-13.875,0-25.123-11.248-25.123-25.123v8.977v16.457v8.977 c0,13.875,11.248,25.123,25.123,25.123h444.464c13.875,0,25.123-11.248,25.123-25.123v-8.976v-16.457v-8.977V81.462 C503.355,67.587,492.107,56.339,478.232,56.339z" data-original="#CCDFED"/><path fill="#883CD1" d="M503.355,148.449H8.645V81.462c0-13.875,11.248-25.123,25.123-25.123h444.464 c13.875,0,25.123,11.248,25.123,25.123L503.355,148.449L503.355,148.449z" data-old_color="#FF4C4C" data-original="#FF4C4C"/><path fill="#711AC5" d="M500.323,69.487c-0.193-0.356-0.395-0.707-0.605-1.052c-0.629-1.036-1.332-2.023-2.1-2.953 c-0.256-0.31-0.519-0.614-0.79-0.912c-1.081-1.19-2.275-2.275-3.565-3.24c-1.935-1.447-4.085-2.621-6.393-3.467 c-2.694-0.986-5.603-1.524-8.638-1.524h-52.351c13.875,0,25.123,11.248,25.123,25.123v26.713c0,12.127-9.831,21.957-21.957,21.957 H8.645v18.317h442.359h52.351v-18.317v-48.67C503.355,77.126,502.257,73.046,500.323,69.487z" data-old_color="#F33A3A" data-original="#F33A3A"/><path fill="#F85F7D" d="M318.492,208.001c-25.381,0-47.975,11.923-62.492,30.473c-14.516-18.55-37.111-30.473-62.492-30.473 c-43.801,0-79.308,35.507-79.308,79.308c0,99.643,141.8,155.13,141.8,155.13s141.8-55.487,141.8-155.13 C397.8,243.509,362.292,208.001,318.492,208.001z" data-old_color="#F5395E" data-original="#FF6991"/><path fill="#F5395E" d="M318.492,208.001c-9.201,0-18.032,1.574-26.249,4.456c30.915,10.827,53.094,40.242,53.094,74.853 c0,57.935-47.934,116.082-88.063,154.614C271.258,436.165,397.8,381.449,397.8,287.31 C397.8,243.509,362.292,208.001,318.492,208.001z" class="active-path" data-old_color="#883CD1" data-original="#FF507E"/><g><path fill="#E1EFFB" d="M91.693,106.504L91.693,106.504c-12.43,0-22.507-10.077-22.507-22.507v-54.01 c0-12.43,10.077-22.507,22.507-22.507l0,0c12.43,0,22.507,10.077,22.507,22.507v54.01C114.2,96.427,104.124,106.504,91.693,106.504 z" data-original="#E1EFFB"/><path fill="#E1EFFB" d="M201.231,106.504L201.231,106.504c-12.43,0-22.507-10.077-22.507-22.507v-54.01 c0-12.43,10.077-22.507,22.507-22.507l0,0c12.43,0,22.507,10.077,22.507,22.507v54.01 C223.738,96.427,213.661,106.504,201.231,106.504z" data-original="#E1EFFB"/><path fill="#E1EFFB" d="M310.769,106.504L310.769,106.504c-12.43,0-22.507-10.077-22.507-22.507v-54.01 c0-12.43,10.077-22.507,22.507-22.507l0,0c12.43,0,22.507,10.077,22.507,22.507v54.01 C333.276,96.427,323.199,106.504,310.769,106.504z" data-original="#E1EFFB"/><path fill="#E1EFFB" d="M420.307,106.504L420.307,106.504c-12.43,0-22.507-10.077-22.507-22.507v-54.01 c0-12.43,10.077-22.507,22.507-22.507l0,0c12.43,0,22.507,10.077,22.507,22.507v54.01 C442.814,96.427,432.737,106.504,420.307,106.504z" data-original="#E1EFFB"/></g><g><path fill="#B6D8D7" d="M114.2,83.997v-54.01c0-12.43-10.077-22.507-22.507-22.507v99.023 C104.124,106.504,114.2,96.427,114.2,83.997z" data-original="#B6D8D7"/><path fill="#B6D8D7" d="M223.738,83.997v-54.01c0-12.43-10.077-22.507-22.507-22.507v99.023 C213.661,106.504,223.738,96.427,223.738,83.997z" data-original="#B6D8D7"/><path fill="#B6D8D7" d="M333.276,83.997v-54.01c0-12.43-10.077-22.507-22.507-22.507v99.023 C323.199,106.504,333.276,96.427,333.276,83.997z" data-original="#B6D8D7"/><path fill="#B6D8D7" d="M442.628,83.997v-54.01c0-12.43-10.077-22.507-22.507-22.507v99.023 C432.552,106.504,442.628,96.427,442.628,83.997z" data-original="#B6D8D7"/></g><path d="M180.64,408.246c35.841,26.618,71.148,40.578,72.634,41.16c0.877,0.343,1.802,0.514,2.726,0.514 c0.924,0,1.85-0.171,2.726-0.514c1.485-0.582,36.793-14.542,72.634-41.16c21.239-15.773,38.208-32.732,50.436-50.405 c15.583-22.524,23.485-46.254,23.485-70.532c0-47.856-38.933-86.789-86.788-86.789c-23.859,0-46.179,9.578-62.492,26.554 c-16.313-16.976-38.633-26.554-62.492-26.554c-47.856,0-86.788,38.933-86.788,86.789c0,24.278,7.901,48.008,23.485,70.532 C142.432,375.514,159.401,392.473,180.64,408.246z M121.681,287.309c0-39.606,32.222-71.828,71.827-71.828 c22.243,0,42.873,10.061,56.601,27.603c1.417,1.812,3.59,2.87,5.891,2.87c2.301,0,4.474-1.059,5.891-2.87 c13.728-17.542,34.359-27.603,56.601-27.603c39.606,0,71.827,32.222,71.827,71.828c0,21.13-6.975,41.95-20.732,61.882 c-11.253,16.304-27.027,32.066-46.887,46.85c-28.705,21.369-57.821,34.522-66.697,38.3 C236.696,426.101,121.681,373.357,121.681,287.309z" data-original="#000000"/><path d="M478.232,48.858h-27.938v-18.87C450.294,13.452,436.842,0,420.306,0c-16.535,0-29.987,13.452-29.987,29.988v18.871h-49.563 V29.988C340.756,13.452,327.304,0,310.769,0s-29.987,13.452-29.987,29.988v18.871h-49.564V29.988 C231.218,13.452,217.766,0,201.231,0s-29.987,13.452-29.987,29.988v18.871h-49.563V29.988C121.681,13.452,108.229,0,91.694,0 C75.158,0,61.706,13.452,61.706,29.988v18.871H33.768c-17.977,0-32.603,14.626-32.603,32.603v61.367v5.621 c0,4.131,3.349,7.48,7.48,7.48h494.71c4.132,0,7.48-3.349,7.48-7.48V81.462C510.836,63.484,496.21,48.858,478.232,48.858z M405.28,83.997V29.988c0-8.285,6.741-15.027,15.026-15.027c8.286,0,15.027,6.741,15.027,15.027v54.009l0,0 c0,6.732-4.45,12.444-10.563,14.35c-1.411,0.44-2.91,0.677-4.464,0.677c-1.553,0-3.053-0.237-4.463-0.677 C409.73,96.441,405.28,90.729,405.28,83.997L405.28,83.997z M295.743,29.988c0-8.285,6.741-15.027,15.026-15.027 s15.026,6.741,15.026,15.027v54.009l0,0c0,8.285-6.741,15.027-15.026,15.027s-15.026-6.741-15.026-15.027V29.988z M186.205,29.988 L186.205,29.988c0-8.285,6.741-15.027,15.026-15.027s15.026,6.741,15.026,15.027v54.009c0,8.285-6.741,15.027-15.026,15.027 s-15.026-6.741-15.026-15.027V29.988z M76.667,83.997V29.988c0-8.285,6.741-15.027,15.027-15.027 c8.285,0,15.026,6.741,15.026,15.027v54.009l0,0c0,6.732-4.45,12.444-10.563,14.35c-1.411,0.44-2.91,0.677-4.463,0.677 c-1.554,0-3.053-0.237-4.464-0.677C81.117,96.441,76.667,90.729,76.667,83.997L76.667,83.997z M495.875,140.969H16.125V81.462 c0-9.728,7.914-17.642,17.642-17.642h27.938v20.178c0,16.535,13.452,29.988,29.988,29.988c16.535,0,29.987-13.452,29.987-29.988 V63.819h49.563v20.178c0,16.535,13.452,29.988,29.987,29.988c16.536,0,29.988-13.452,29.988-29.988V63.819h49.562v20.178 c0,16.535,13.452,29.988,29.988,29.988c16.535,0,29.987-13.452,29.987-29.988V63.819h49.563v20.178 c0,16.535,13.452,29.988,29.987,29.988c16.536,0,29.988-13.452,29.988-29.988V63.819h27.938c9.729,0,17.642,7.914,17.642,17.642 v59.508H495.875z" data-original="#000000"/><path d="M503.355,176.802c-4.132,0-7.48,3.349-7.48,7.48v295.114c0,9.728-7.914,17.643-17.642,17.643H33.768 c-9.729,0-17.642-7.914-17.642-17.643V183.409c0-4.131-3.349-7.48-7.48-7.48s-7.48,3.349-7.48,7.48v295.987 C1.164,497.374,15.79,512,33.768,512h444.464c17.977,0,32.603-14.626,32.603-32.604V184.282 C510.836,180.151,507.487,176.802,503.355,176.802z" data-original="#000000"/></g></svg>