<svg xmlns="http://www.w3.org/2000/svg" xmlns:xlink="http://www.w3.org/1999/xlink" id="Layer_1" width="512" height="512" x="0" y="0" enable-background="new 0 0 512.001 512.001" version="1.1" viewBox="0 0 512.001 512.001" xml:space="preserve"><g><g><g><circle cx="395.751" cy="448.465" r="43.02" fill="#ed85d6" class="active-path" data-old_color="#ed85d6" data-original="#000000"/></g></g><g><g><circle cx="103.835" cy="448.465" r="43.02" fill="#ed85d6" class="active-path" data-old_color="#ed85d6" data-original="#000000"/></g></g><g><g><path fill="#ed85d6" d="M481.435,255.562c-15.903-32.69-32.502-42.566-35.668-44.215l-3.289-1.711h-91.786v79.283h143.677 C490.641,276.762,486.332,265.628,481.435,255.562z" class="active-path" data-old_color="#ed85d6" data-original="#000000"/></g></g><g><g><rect width="107.754" height="79.278" x="212.629" y="209.632" fill="#ed85d6" class="active-path" data-old_color="#ed85d6" data-original="#000000"/></g></g><g><g><path fill="#ed85d6" d="M16.458,209.636l-4.275,8.035c-1.138,2.141-10.359,20.966-11.948,71.248h182.09v-79.283H16.458z" class="active-path" data-old_color="#ed85d6" data-original="#000000"/></g></g><g><g><polygon fill="#ed85d6" points="395.75 130.911 395.75 42.922 292.957 42.922 292.957 130.911 262.652 130.911 262.652 20.516 157.949 20.516 157.949 130.911 127.644 130.911 127.644 61.144 53.246 61.144 53.246 130.911 9.949 130.911 9.949 179.331 454.38 179.331 454.38 130.911" class="active-path" data-old_color="#ed85d6" data-original="#000000"/></g></g><g><g><path fill="#ed85d6" d="M502.015,319.224H0v129.245h30.513c0-40.431,32.893-73.325,73.325-73.325s73.325,32.893,73.325,73.325h145.264 c0-40.431,32.893-73.325,73.325-73.325c40.431,0,73.325,32.893,73.325,73.325h42.925v-15.152 C512,389.829,508.65,351.701,502.015,319.224z" class="active-path" data-old_color="#ed85d6" data-original="#000000"/></g></g></g></svg>