<svg xmlns="http://www.w3.org/2000/svg" xmlns:xlink="http://www.w3.org/1999/xlink" version="1.1" id="Layer_1" x="0px" y="0px" viewBox="0 0 501.551 501.551" style="enable-background:new 0 0 501.551 501.551;" xml:space="preserve" width="512" height="512" class=""><g><path style="fill:#F2F2F2;" d="M409.6,20.898C409.6,9.404,400.196,0,388.702,0H28.212C16.718,0,7.314,9.404,7.314,20.898v459.755  c0,11.494,9.404,20.898,20.898,20.898H303.02l106.58-106.58V20.898z" data-original="#F2F2F2" class=""></path><g>
	<path style="fill:#CDD6E0;" d="M409.6,394.971h-85.682c-11.494,0-20.898,9.404-20.898,20.898v85.682L409.6,394.971z" data-original="#CDD6E0" class=""></path>
	<rect x="191.216" y="40.751" style="fill:#CDD6E0;" width="187.037" height="24.033" data-original="#CDD6E0" class=""></rect>
	<rect x="191.216" y="106.58" style="fill:#CDD6E0;" width="187.037" height="24.033" data-original="#CDD6E0" class=""></rect>
	<rect x="191.216" y="172.408" style="fill:#CDD6E0;" width="187.037" height="24.033" data-original="#CDD6E0" class=""></rect>
	<rect x="38.661" y="238.237" style="fill:#CDD6E0;" width="339.592" height="24.033" data-original="#CDD6E0" class=""></rect>
	<rect x="38.661" y="304.065" style="fill:#CDD6E0;" width="339.592" height="24.033" data-original="#CDD6E0" class=""></rect>
</g><rect x="38.661" y="369.894" style="fill:#ACB3BA;" width="211.069" height="24.033" data-original="#ACB3BA" class=""></rect><rect x="38.661" y="435.722" style="fill:#F5395E" width="211.069" height="24.033" data-original="#FF7058" class="" data-old_color="#FF7058"></rect><rect x="38.661" y="40.751" style="fill:#3C7ECE" width="121.208" height="155.69" data-original="#4CDBC4" class="active-path" data-old_color="#883CD1"></rect><path style="fill:#ECDF00" d="M481.698,453.486v2.09l-22.988,41.796l-2.09,3.135l-2.09-2.09l-22.988-41.796v-2.09  c1.045-12.539,1.045-26.122,0-38.661v-1.045h51.2v1.045C480.653,428.408,480.653,440.947,481.698,453.486z" data-original="#FFD15C" class="" data-old_color="#FFF43B"></path><circle style="fill:#FFFFFF;" cx="456.62" cy="447.216" r="7.314" data-original="#FFFFFF"></circle><path style="fill:#883CD1" d="M494.237,37.616v73.143h-75.233V37.616c0-1.045,0-3.135,0-4.18c0-3.135,1.045-6.269,2.09-9.404  C426.318,10.449,439.902,0,456.62,0c10.449,0,19.853,4.18,27.167,11.494c3.135,3.135,6.269,8.359,8.359,12.539  c1.045,3.135,2.09,6.269,2.09,9.404C494.237,34.482,494.237,36.571,494.237,37.616z" data-original="#54C0EB" class="" data-old_color="#3C7ECE"></path><rect x="419.004" y="110.759" style="fill:#BB8BEA" width="75.233" height="291.527" data-original="#84DBFF" class="" data-old_color="#8BB6E9"></rect><rect x="419.004" y="264.359" style="fill:#883CD1" width="75.233" height="83.592" data-original="#54C0EB" class="" data-old_color="#3C7ECE"></rect><rect x="426.318" y="402.286" style="fill:#40596B;" width="61.649" height="11.494" data-original="#40596B" class=""></rect><rect x="419.004" y="43.886" style="fill:#FFFFFF;" width="75.233" height="9.404" data-original="#FFFFFF"></rect><path style="fill:#40596B;" d="M472.294,160.914V35.527c0-8.359-7.314-15.673-15.673-15.673l0,0  c-8.359,0-15.673,7.314-15.673,15.673v125.388H472.294z" data-original="#40596B" class=""></path></g> </svg>