<svg xmlns="http://www.w3.org/2000/svg" xmlns:xlink="http://www.w3.org/1999/xlink" id="Layer_1" width="512" height="512" x="0" y="0" enable-background="new 0 0 501.551 501.551" version="1.1" viewBox="0 0 501.551 501.551" xml:space="preserve"><g><path fill="#F2F2F2" d="M409.6,20.898C409.6,9.404,400.196,0,388.702,0H28.212C16.718,0,7.314,9.404,7.314,20.898v459.755 c0,11.494,9.404,20.898,20.898,20.898H303.02l106.58-106.58V20.898z" data-original="#F2F2F2"/><g><path fill="#CDD6E0" d="M409.6,394.971h-85.682c-11.494,0-20.898,9.404-20.898,20.898v85.682L409.6,394.971z" data-original="#CDD6E0"/><rect width="187.037" height="24.033" x="191.216" y="40.751" fill="#CDD6E0" data-original="#CDD6E0"/><rect width="187.037" height="24.033" x="191.216" y="106.58" fill="#CDD6E0" data-original="#CDD6E0"/><rect width="187.037" height="24.033" x="191.216" y="172.408" fill="#CDD6E0" data-original="#CDD6E0"/><rect width="339.592" height="24.033" x="38.661" y="238.237" fill="#CDD6E0" data-original="#CDD6E0"/><rect width="339.592" height="24.033" x="38.661" y="304.065" fill="#CDD6E0" data-original="#CDD6E0"/></g><rect width="211.069" height="24.033" x="38.661" y="369.894" fill="#ACB3BA" data-original="#ACB3BA"/><rect width="211.069" height="24.033" x="38.661" y="435.722" fill="#F5395E" data-old_color="#FF7058" data-original="#FF7058"/><rect width="121.208" height="155.69" x="38.661" y="40.751" fill="#3C7ECE" class="active-path" data-old_color="#883CD1" data-original="#4CDBC4"/><path fill="#ECDF00" d="M481.698,453.486v2.09l-22.988,41.796l-2.09,3.135l-2.09-2.09l-22.988-41.796v-2.09 c1.045-12.539,1.045-26.122,0-38.661v-1.045h51.2v1.045C480.653,428.408,480.653,440.947,481.698,453.486z" data-old_color="#FFF43B" data-original="#FFD15C"/><circle cx="456.62" cy="447.216" r="7.314" fill="#FFF" data-original="#FFFFFF"/><path fill="#883CD1" d="M494.237,37.616v73.143h-75.233V37.616c0-1.045,0-3.135,0-4.18c0-3.135,1.045-6.269,2.09-9.404 C426.318,10.449,439.902,0,456.62,0c10.449,0,19.853,4.18,27.167,11.494c3.135,3.135,6.269,8.359,8.359,12.539 c1.045,3.135,2.09,6.269,2.09,9.404C494.237,34.482,494.237,36.571,494.237,37.616z" data-old_color="#3C7ECE" data-original="#54C0EB"/><rect width="75.233" height="291.527" x="419.004" y="110.759" fill="#BB8BEA" data-old_color="#8BB6E9" data-original="#84DBFF"/><rect width="75.233" height="83.592" x="419.004" y="264.359" fill="#883CD1" data-old_color="#3C7ECE" data-original="#54C0EB"/><rect width="61.649" height="11.494" x="426.318" y="402.286" fill="#40596B" data-original="#40596B"/><rect width="75.233" height="9.404" x="419.004" y="43.886" fill="#FFF" data-original="#FFFFFF"/><path fill="#40596B" d="M472.294,160.914V35.527c0-8.359-7.314-15.673-15.673-15.673l0,0 c-8.359,0-15.673,7.314-15.673,15.673v125.388H472.294z" data-original="#40596B"/></g></svg>