<svg xmlns="http://www.w3.org/2000/svg" xmlns:xlink="http://www.w3.org/1999/xlink" id="Layer_1" x="0" y="0" enable-background="new 0 0 512 512" version="1.1" viewBox="0 0 512 512" xml:space="preserve"><path fill="#FFD039" d="M393.904,60.476h-39.499c-21.034,0-38.147,17.113-38.147,38.147v1.347c0,4.662,3.779,8.44,8.44,8.44	h98.914c4.662,0,8.44-3.778,8.44-8.44v-1.347C432.05,77.589,414.937,60.476,393.904,60.476z"/><path fill="#FF9F34" d="M393.904,60.476h-30.977c21.034,0,38.147,17.113,38.147,38.147v1.347c0,4.662-3.778,8.44-8.44,8.44	h30.977c4.662,0,8.44-3.778,8.44-8.44v-1.347C432.05,77.589,414.937,60.476,393.904,60.476z"/><path fill="#FFD039" d="M158.776,60.476h-39.499c-21.034,0-38.147,17.113-38.147,38.147v1.347c0,4.662,3.779,8.44,8.44,8.44	h98.914c4.662,0,8.44-3.778,8.44-8.44v-1.347C196.923,77.589,179.81,60.476,158.776,60.476z"/><path fill="#FF9F34" d="M158.776,60.476H127.8c21.034,0,38.147,17.113,38.147,38.147v1.347c0,4.662-3.778,8.44-8.44,8.44	h30.977c4.662,0,8.44-3.778,8.44-8.44v-1.347C196.923,77.589,179.81,60.476,158.776,60.476z"/><g><path fill="#2A2A2C" d="M102.416,402.559H38.244c-4.661,0-8.44,3.778-8.44,8.44c0,22.346,18.18,40.526,40.526,40.526 s40.526-18.179,40.526-40.526C110.855,406.338,107.077,402.559,102.416,402.559z"/><path fill="#2A2A2C" d="M353.728,402.559h-64.172c-4.662,0-8.44,3.778-8.44,8.44c0,22.346,18.179,40.526,40.526,40.526 c22.347,0,40.527-18.179,40.527-40.526C362.167,406.338,358.389,402.559,353.728,402.559z"/><path fill="#2A2A2C" d="M228.072,402.559H163.9c-4.661,0-8.44,3.778-8.44,8.44c0,22.346,18.18,40.526,40.526,40.526 c22.346,0,40.526-18.179,40.526-40.526C236.511,406.338,232.733,402.559,228.072,402.559z"/><path fill="#2A2A2C" d="M479.383,402.559h-64.171c-4.661,0-8.44,3.778-8.44,8.44c0,22.346,18.179,40.526,40.526,40.526 c22.347,0,40.526-18.179,40.526-40.526C487.822,406.338,484.044,402.559,479.383,402.559z"/></g><path fill="#ed85d6" d="M511.997,133.821c0-0.018,0.002-0.035,0.002-0.053l-0.012-0.904	c-0.296-22.791-18.438-41.334-40.442-41.334H40.442c-10.635,0-20.677,4.24-28.277,11.938c-7.959,8.063-12.273,18.842-12.163,30.366	c0,0.016-0.002,0.03-0.002,0.045v135.964v107.396c0,23.268,18.929,42.198,42.198,42.198h427.604	c23.268,0,42.198-18.929,42.198-42.198V269.843V133.881C512,133.86,511.997,133.84,511.997,133.821z M47.408,261.405V142.32h68.74	v119.084H47.408L47.408,261.405z M163.556,261.405V142.32h68.74v119.084H163.556L163.556,261.405z M279.704,261.405V142.32h68.74	v119.084H279.704L279.704,261.405z M395.851,261.405V142.32h68.741v119.084H395.851L395.851,261.405z"/><path fill="#e256c4" d="M511.994,133.881c0-0.037,0.005-0.074,0.005-0.113l-0.012-0.904	c-0.296-22.791-18.438-41.334-40.442-41.334h-30.945c21.945,0,40.044,18.444,40.435,41.151h0.02v1.198v8.438v119.084v8.44v8.44	v14.716v84.24c0,23.268-18.929,42.198-42.198,42.198h30.945c23.268,0,42.198-18.929,42.198-42.198V269.843V133.881H511.994z"/><rect width="512" height="48.567" x="0" y="302.395" fill="#FFD039"/><rect width="30.945" height="48.567" x="481.055" y="302.395" fill="#FF9F34"/></svg>